<svg width="121" height="110" viewBox="0 0 121 110" fill="none" xmlns="http://www.w3.org/2000/svg">
<path d="M10.5 52.2823C10.5 41.3568 19.3568 32.5 30.2823 32.5V32.5C33.4476 32.5 36.3085 30.6136 37.5554 27.7041L39.1038 24.0912C41.4674 18.576 46.8905 15 52.8909 15H60.5H68.1091C74.1095 15 79.5326 18.576 81.8962 24.0912L83.4446 27.7041C84.6915 30.6136 87.5524 32.5 90.7177 32.5V32.5C101.643 32.5 110.5 41.3568 110.5 52.2823V77.5C110.5 91.3071 99.3071 102.5 85.5 102.5H35.5C21.6929 102.5 10.5 91.3071 10.5 77.5V52.2823Z" stroke="#717171" stroke-width="7.5"/>
<circle cx="15" cy="15" r="15" transform="matrix(-1 0 0 1 75.5 47.5)" stroke="#717171" stroke-width="7.5"/>
</svg>
